<svg id="katman_1" data-name="katman 1" xmlns="http://www.w3.org/2000/svg" viewBox="0 0 983.01 236.48"><defs><style>.cls-1{fill:#535657;stroke:1px;}.cls-2{fill:#009ace;}.cls-3{fill:#00ce9b;}</style></defs><title>logo2</title><path class="cls-1" d="M576.85,180.06v31h-2.22V205.9a10.49,10.49,0,0,1-9.51,5.62,11.55,11.55,0,0,1,0-23.1,10.49,10.49,0,0,1,9.51,5.62v-14ZM574.63,200a9.38,9.38,0,1,0-9.37,9.42A9.31,9.31,0,0,0,574.63,200Z" transform="translate(-8.5 -12.19)"/><path class="cls-1" d="M583,181.79a1.77,1.77,0,1,1,1.77,1.77A1.77,1.77,0,0,1,583,181.79Zm.67,7.12h2.21V211h-2.21Z" transform="translate(-8.5 -12.19)"/><path class="cls-1" d="M614.5,188.91V210c0,6.63-4.91,10.39-11,10.39-5.17,0-8.85-2.08-10.44-5.31l2-1.1c1.15,2.34,3.62,4.28,8.49,4.28,5.53,0,8.8-3.22,8.8-8.26V205.9a10.49,10.49,0,0,1-9.51,5.62,11.55,11.55,0,0,1,0-23.1,10.49,10.49,0,0,1,9.51,5.62v-5.13ZM612.29,200a9.38,9.38,0,1,0-9.37,9.42A9.31,9.31,0,0,0,612.29,200Z" transform="translate(-8.5 -12.19)"/><path class="cls-1" d="M620.63,181.79a1.77,1.77,0,1,1,1.77,1.77A1.77,1.77,0,0,1,620.63,181.79Zm.67,7.12h2.21V211H621.3Z" transform="translate(-8.5 -12.19)"/><path class="cls-1" d="M635.05,191.08v14.38c0,3.89,2.08,4,6.59,3.58v2c-5.8.88-8.85-.53-8.85-5.57V191.08h-4.86v-2.17h4.86v-5.53l2.26-.66v6.19h6.59v2.17Z" transform="translate(-8.5 -12.19)"/><path class="cls-1" d="M667.32,188.91V211h-2.25v-5a10.64,10.64,0,0,1-9.51,5.49,11.55,11.55,0,0,1,0-23.1,10.64,10.64,0,0,1,9.51,5.49v-5ZM665.07,200a9.36,9.36,0,1,0-9.33,9.42A9.27,9.27,0,0,0,665.07,200Z" transform="translate(-8.5 -12.19)"/><path class="cls-1" d="M674.12,178.74h2.21V211h-2.21Z" transform="translate(-8.5 -12.19)"/><path class="cls-1" d="M716.65,188.91V211H714.4v-5a10.64,10.64,0,0,1-9.51,5.49,11.55,11.55,0,0,1,0-23.1,10.64,10.64,0,0,1,9.51,5.49v-5ZM714.4,200a9.36,9.36,0,1,0-9.34,9.42A9.27,9.27,0,0,0,714.4,200Z" transform="translate(-8.5 -12.19)"/><path class="cls-1" d="M745.3,188.91V210c0,6.63-4.91,10.39-11,10.39-5.17,0-8.84-2.08-10.44-5.31l1.95-1.1c1.15,2.34,3.63,4.28,8.49,4.28,5.53,0,8.8-3.22,8.8-8.26V205.9a10.49,10.49,0,0,1-9.51,5.62,11.55,11.55,0,0,1,0-23.1,10.49,10.49,0,0,1,9.51,5.62v-5.13ZM743.08,200a9.38,9.38,0,1,0-9.37,9.42A9.31,9.31,0,0,0,743.08,200Z" transform="translate(-8.5 -12.19)"/><path class="cls-1" d="M773,200.06c0,.35,0,.71,0,1.06h-20a9,9,0,0,0,9.38,8.27c3.63,0,6.37-1.68,7.65-4l2,1.15a10.92,10.92,0,0,1-9.64,5,11.55,11.55,0,0,1-.18-23.1C768.76,188.42,773,194,773,200.06ZM752.88,199h17.78c-.48-5.4-4.29-8.4-8.62-8.4A8.92,8.92,0,0,0,752.88,199Z" transform="translate(-8.5 -12.19)"/><path class="cls-1" d="M796.83,197.27V211h-2.25V197.27c0-4.07-2.35-6.72-6.51-6.72-4.33,0-7.74,2.83-7.74,8.8V211h-2.21V188.91h2.21v4.2a8.34,8.34,0,0,1,7.92-4.69C793.51,188.42,796.83,191.92,796.83,197.27Z" transform="translate(-8.5 -12.19)"/><path class="cls-1" d="M801.55,200a11.33,11.33,0,0,1,11.63-11.55,10.36,10.36,0,0,1,9.64,5.67L821,195.15a8.4,8.4,0,0,0-7.83-4.6,9.42,9.42,0,0,0,0,18.84,8.84,8.84,0,0,0,8-4.6L823,205.9a10.89,10.89,0,0,1-9.82,5.62A11.33,11.33,0,0,1,801.55,200Z" transform="translate(-8.5 -12.19)"/><path class="cls-1" d="M846.43,188.91l-9.56,24.15c-1.68,4.25-5,7.12-8.76,6.82v-2.09c3,.27,5.22-1.94,6.59-5.17l.49-1.19L825,188.91h2.39l8.93,19.69,7.7-19.69Z" transform="translate(-8.5 -12.19)"/><path class="cls-1" d="M407.36,96.3q10.92,0,17.5,6.89t6.57,18.68V160H420.64V122.49q0-7.58-4.1-11.73t-11.29-4.16q-8.07,0-13,5t-5,15.45V160h-10.8v-62h10.8v8.93Q393.84,96.31,407.36,96.3Z" transform="translate(-8.5 -12.19)"/><path class="cls-1" d="M498.82,152.15a33.19,33.19,0,0,1-46.35,0,31.44,31.44,0,0,1-9.5-23.21A32.32,32.32,0,0,1,475.61,96.3a31.84,31.84,0,0,1,23.21,9.43,31.35,31.35,0,0,1,9.56,23.21A31.34,31.34,0,0,1,498.82,152.15ZM475.61,151a21.63,21.63,0,0,0,22-22.09,21.63,21.63,0,0,0-22-22.09,21.09,21.09,0,0,0-15.51,6.33,22.78,22.78,0,0,0,0,31.52A21.09,21.09,0,0,0,475.61,151Z" transform="translate(-8.5 -12.19)"/><path class="cls-1" d="M562.11,97.92h11.67L549,160H536.3l-24.82-62h11.67l19.48,50.37Z" transform="translate(-8.5 -12.19)"/><path class="cls-1" d="M588.05,133.9a20.43,20.43,0,0,0,7.63,12.91,23.76,23.76,0,0,0,14.83,4.59q12.29,0,17.87-9.06l9.19,5.22q-9.06,14-27.31,14-14.76,0-24-9.24T577,128.94q0-14,9.06-23.33t23.46-9.31q13.65,0,22.28,9.62a33.46,33.46,0,0,1,8.62,23.14,32.24,32.24,0,0,1-.37,4.84Zm21.47-27.42q-8.68,0-14.4,4.9a21.24,21.24,0,0,0-7.07,13.09H629.5q-1.37-8.81-7-13.4A19.91,19.91,0,0,0,609.52,106.48Z" transform="translate(-8.5 -12.19)"/><path class="cls-1" d="M719.85,96.3q10.42,0,16.87,6.77t6.46,18.3V160h-10.8V121.74q0-7.18-3.72-11.17a13,13,0,0,0-9.93-4,14.15,14.15,0,0,0-11.11,4.66q-4.15,4.65-4.16,14.21V160H692.67V121.74q0-7.18-3.54-11.17a12.25,12.25,0,0,0-9.62-4,15.06,15.06,0,0,0-11.35,4.72q-4.53,4.73-4.53,14.15V160h-10.8v-62h10.8v8.31Q670,96.3,682.12,96.3q12.52,0,18.24,10.55Q706.81,96.31,719.85,96.3Z" transform="translate(-8.5 -12.19)"/><path class="cls-1" d="M792.45,96.3a29.77,29.77,0,0,1,22.21,9.5,32,32,0,0,1,9.18,23.14,32,32,0,0,1-9.18,23.15,29.76,29.76,0,0,1-22.21,9.49q-15.39,0-23.46-12.28V160h-10.8V73.1H769v35.49Q777.06,96.31,792.45,96.3Zm-1.37,54.85a21.1,21.1,0,0,0,15.64-6.39,22.93,22.93,0,0,0,0-31.64,22.48,22.48,0,0,0-31.4,0,22.93,22.93,0,0,0,0,31.64A21.24,21.24,0,0,0,791.08,151.15Z" transform="translate(-8.5 -12.19)"/><path class="cls-1" d="M847.55,108.34q5.33-11.53,19.36-11.54v11.29a19.54,19.54,0,0,0-13.65,4.22q-5.71,4.59-5.71,14.77V160h-10.8v-62h10.8Z" transform="translate(-8.5 -12.19)"/><path class="cls-1" d="M926.47,152.15a33.19,33.19,0,0,1-46.35,0,31.43,31.43,0,0,1-9.49-23.21A32.3,32.3,0,0,1,903.27,96.3a31.82,31.82,0,0,1,23.2,9.43A31.35,31.35,0,0,1,936,128.94,31.34,31.34,0,0,1,926.47,152.15ZM903.27,151a21.63,21.63,0,0,0,22-22.09,21.63,21.63,0,0,0-22-22.09,21.06,21.06,0,0,0-15.51,6.33,22.78,22.78,0,0,0,0,31.52A21.06,21.06,0,0,0,903.27,151Z" transform="translate(-8.5 -12.19)"/><path class="cls-1" d="M956.76,114.49c0,2.34,1.21,4.22,3.65,5.64a39.84,39.84,0,0,0,8.71,3.61l10.18,3a17.79,17.79,0,0,1,8.66,5.63A15.72,15.72,0,0,1,991.5,143,16.3,16.3,0,0,1,985,156.49q-6.51,5.1-16.69,5.09a29.14,29.14,0,0,1-15.52-4,22.2,22.2,0,0,1-9.18-10.55l9.31-5.34a13.09,13.09,0,0,0,5.58,7.08,17.86,17.86,0,0,0,9.81,2.6,17.12,17.12,0,0,0,8.81-2,6.88,6.88,0,0,0,3.47-6.38c0-2.4-1.2-4.31-3.6-5.76a37.65,37.65,0,0,0-8.66-3.69l-10.17-3.05a18.94,18.94,0,0,1-8.72-5.51,14.56,14.56,0,0,1-3.59-10.17,16.5,16.5,0,0,1,6.26-13.28q6.27-5.22,15.7-5.22a26.37,26.37,0,0,1,13.47,3.42,21.92,21.92,0,0,1,8.87,9.49l-9.06,5.09q-3.35-7.93-13.28-8a13.88,13.88,0,0,0-7.82,2.13A6.78,6.78,0,0,0,956.76,114.49Z" transform="translate(-8.5 -12.19)"/><path class="cls-2" d="M8.5,248.67H44.82a29.36,29.36,0,0,0,26.87-17.54L136,84.9a10.11,10.11,0,0,1,16.83-2.63l58.09,65.45a7.36,7.36,0,0,0,12.26-1.94L240,107.12,170.2,28.7a49.24,49.24,0,0,0-36.78-16.51h0a34.92,34.92,0,0,0-32.08,21.1Z" transform="translate(-8.5 -12.19)"/><path class="cls-3" d="M357.58,12.19H321.26a29.36,29.36,0,0,0-26.87,17.54L230.09,176a10.11,10.11,0,0,1-16.82,2.63l-58.09-65.45a7.36,7.36,0,0,0-12.26,1.93L126,153.74l69.84,78.41a49.19,49.19,0,0,0,36.78,16.52h0a34.93,34.93,0,0,0,32.07-21.11Z" transform="translate(-8.5 -12.19)"/></svg>